<svg width="553" height="348" viewBox="0 0 553 348" fill="none" xmlns="http://www.w3.org/2000/svg">
<path d="M465.054 154.24C465.054 239.425 390.059 308.48 297.547 308.48C205.035 308.48 130.039 239.425 130.039 154.24C130.039 69.0557 205.035 0 297.547 0C390.059 0 465.054 69.0557 465.054 154.24Z" fill="#D9D9D9"/>
<path d="M243.18 117.371C243.18 179.205 188.742 229.331 121.59 229.331C54.4377 229.331 0 179.205 0 117.371C0 55.5379 54.4377 5.41193 121.59 5.41193C188.742 5.41193 243.18 55.5379 243.18 117.371Z" fill="#D9D9D9"/>
<path d="M552.482 248.611C552.482 302.972 501.333 347.04 438.238 347.04C375.144 347.04 323.995 302.972 323.995 248.611C323.995 194.25 375.144 150.181 438.238 150.181C501.333 150.181 552.482 194.25 552.482 248.611Z" fill="#D9D9D9"/>
</svg>
