<svg width="212" height="61" viewBox="0 0 212 61" fill="none" xmlns="http://www.w3.org/2000/svg">
<g clip-path="url(#clip0_99_10)">
<mask id="path-1-inside-1_99_10" fill="white">
<path fill-rule="evenodd" clip-rule="evenodd" d="M212.447 0H55.7109V0.013672L39.8254 31.7709L55.7109 61.4111V61.4237H55.7177L55.7177 61.4238V61.4237H212.447V0Z"/>
</mask>
<path fill-rule="evenodd" clip-rule="evenodd" d="M212.447 0H55.7109V0.013672L39.8254 31.7709L55.7109 61.4111V61.4237H55.7177L55.7177 61.4238V61.4237H212.447V0Z" fill="#060040"/>
<path d="M55.7109 0V-2.11806H53.5929V0H55.7109ZM212.447 0H214.565V-2.11806H212.447V0ZM55.7109 0.013672L57.6052 0.961225L57.829 0.513872V0.013672H55.7109ZM39.8254 31.7709L37.9312 30.8234L37.4404 31.8045L37.9586 32.7714L39.8254 31.7709ZM55.7109 61.4111H57.829V60.8793L57.5778 60.4106L55.7109 61.4111ZM55.7109 61.4237H53.5929V63.5418H55.7109V61.4237ZM55.7177 61.4237L57.5814 60.4173L56.9811 59.3057H55.7177V61.4237ZM55.7177 61.4238L53.854 62.4302L57.8358 61.4238H55.7177ZM55.7177 61.4237V59.3057H53.5997V61.4237H55.7177ZM212.447 61.4237V63.5418H214.565V61.4237H212.447ZM55.7109 2.11806H212.447V-2.11806H55.7109V2.11806ZM57.829 0.013672V0H53.5929V0.013672H57.829ZM41.7197 32.7185L57.6052 0.961225L53.8167 -0.933881L37.9312 30.8234L41.7197 32.7185ZM57.5778 60.4106L41.6923 30.7704L37.9586 32.7714L53.8441 62.4116L57.5778 60.4106ZM57.829 61.4237V61.4111H53.5929V61.4237H57.829ZM55.7177 59.3057H55.7109V63.5418H55.7177V59.3057ZM57.5814 60.4174L57.5814 60.4173L53.854 62.4301L53.854 62.4302L57.5814 60.4174ZM53.5997 61.4237V61.4238H57.8358V61.4237H53.5997ZM212.447 59.3057H55.7177V63.5418H212.447V59.3057ZM210.329 0V61.4237H214.565V0H210.329Z" fill="#008F11" mask="url(#path-1-inside-1_99_10)"/>
<mask id="path-3-inside-2_99_10" fill="white">
<path fill-rule="evenodd" clip-rule="evenodd" d="M20.4746 31.8054L36.6483 0L50.0627 6.45493e-06V0.0193574L34.595 31.8054L50.0627 61.4237H36.6483L20.4746 31.8054Z"/>
</mask>
<path fill-rule="evenodd" clip-rule="evenodd" d="M20.4746 31.8054L36.6483 0L50.0627 6.45493e-06V0.0193574L34.595 31.8054L50.0627 61.4237H36.6483L20.4746 31.8054Z" fill="#008F11" fill-opacity="0.9"/>
<path d="M36.6483 0L36.6483 -0.70602L36.2153 -0.70602L36.019 -0.320024L36.6483 0ZM20.4746 31.8054L19.8453 31.4854L19.6766 31.8171L19.855 32.1438L20.4746 31.8054ZM50.0627 6.45493e-06H50.7687V-0.706013L50.0627 -0.706013L50.0627 6.45493e-06ZM50.0627 0.0193574L50.6975 0.328284L50.7687 0.18202V0.0193574H50.0627ZM34.595 31.8054L33.9602 31.4965L33.8044 31.8167L33.9692 32.1323L34.595 31.8054ZM50.0627 61.4237V62.1297H51.2279L50.6885 61.0969L50.0627 61.4237ZM36.6483 61.4237L36.0286 61.7621L36.2294 62.1297H36.6483V61.4237ZM36.019 -0.320024L19.8453 31.4854L21.1039 32.1254L37.2776 0.320024L36.019 -0.320024ZM50.0627 -0.706013L36.6483 -0.70602L36.6483 0.70602L50.0627 0.706026L50.0627 -0.706013ZM50.7687 0.0193574V6.45493e-06H49.3567V0.0193574H50.7687ZM35.2299 32.1144L50.6975 0.328284L49.4278 -0.289569L33.9602 31.4965L35.2299 32.1144ZM50.6885 61.0969L35.2208 31.4786L33.9692 32.1323L49.4369 61.7505L50.6885 61.0969ZM36.6483 62.1297H50.0627V60.7177H36.6483V62.1297ZM19.855 32.1438L36.0286 61.7621L37.268 61.0854L21.0943 31.4671L19.855 32.1438Z" fill="#008F11" mask="url(#path-3-inside-2_99_10)"/>
<mask id="path-5-inside-3_99_10" fill="white">
<path fill-rule="evenodd" clip-rule="evenodd" d="M0 31.8054L16.1737 0L29.5881 6.45493e-06L29.5881 0.0193143L14.1204 31.8054L29.5881 61.4237H16.1737L0 31.8054Z"/>
</mask>
<path fill-rule="evenodd" clip-rule="evenodd" d="M0 31.8054L16.1737 0L29.5881 6.45493e-06L29.5881 0.0193143L14.1204 31.8054L29.5881 61.4237H16.1737L0 31.8054Z" fill="#008F11" fill-opacity="0.71"/>
<path d="M16.1737 0L16.1737 -0.70602L15.7407 -0.70602L15.5444 -0.320024L16.1737 0ZM0 31.8054L-0.629324 31.4854L-0.798025 31.8171L-0.619651 32.1438L0 31.8054ZM29.5881 6.45493e-06L30.2941 7.61998e-05L30.2942 -0.706013L29.5881 -0.706013L29.5881 6.45493e-06ZM29.5881 0.0193143L30.2229 0.328241L30.2941 0.18201L30.2941 0.0193841L29.5881 0.0193143ZM14.1204 31.8054L13.4856 31.4965L13.3298 31.8167L13.4946 32.1323L14.1204 31.8054ZM29.5881 61.4237V62.1297H30.7533L30.2139 61.0969L29.5881 61.4237ZM16.1737 61.4237L15.554 61.7621L15.7548 62.1297H16.1737V61.4237ZM15.5444 -0.320024L-0.629324 31.4854L0.629324 32.1254L16.803 0.320024L15.5444 -0.320024ZM29.5881 -0.706013L16.1737 -0.70602L16.1737 0.70602L29.5881 0.706026L29.5881 -0.706013ZM30.2941 0.0193841L30.2941 7.61998e-05L28.882 -6.329e-05L28.882 0.0192446L30.2941 0.0193841ZM14.7552 32.1144L30.2229 0.328241L28.9532 -0.289612L13.4856 31.4965L14.7552 32.1144ZM30.2139 61.0969L14.7462 31.4786L13.4946 32.1323L28.9622 61.7505L30.2139 61.0969ZM16.1737 62.1297H29.5881V60.7177H16.1737V62.1297ZM-0.619651 32.1438L15.554 61.7621L16.7933 61.0854L0.619651 31.4671L-0.619651 32.1438Z" fill="#008F11" mask="url(#path-5-inside-3_99_10)"/>
</g>
<defs>
<clipPath id="clip0_99_10">
<rect width="212" height="61" fill="white"/>
</clipPath>
</defs>
</svg>
