<svg width="212" height="61" viewBox="0 0 212 61" fill="none" xmlns="http://www.w3.org/2000/svg">
<g clip-path="url(#clip0_99_10)">
<mask id="path-1-inside-1_99_10" fill="white">
<path fill-rule="evenodd" clip-rule="evenodd" d="M-3.01573e-05 0H153V0.540717L168.622 31.7709L153 60.9192V61H152.957L152.73 61.4238V61H-3.01573e-05V0Z"/>
</mask>
<path fill-rule="evenodd" clip-rule="evenodd" d="M-3.01573e-05 0H153V0.540717L168.622 31.7709L153 60.9192V61H152.957L152.73 61.4238V61H-3.01573e-05V0Z" fill="#060040"/>
<path d="M153 0V-2.11806H155.118V0H153ZM-3.01573e-05 0H-2.11809V-2.11806H-3.01573e-05V0ZM153 0.540717L151.106 1.48827L150.882 1.04092V0.540717H153ZM168.622 31.7709L170.516 30.8233L171.007 31.8045L170.489 32.7714L168.622 31.7709ZM153 60.9192H150.882V60.3874L151.133 59.9187L153 60.9192ZM153 61H155.118V63.1181H153V61ZM152.957 61L151.09 59.9995L151.689 58.8819H152.957V61ZM152.73 61.4238L154.596 62.4243L150.611 61.4238H152.73ZM152.73 61V58.8819H154.848V61H152.73ZM-3.01573e-05 61V63.1181H-2.11809V61H-3.01573e-05ZM153 2.11806H-3.01573e-05V-2.11806H153V2.11806ZM150.882 0.540717V0H155.118V0.540717H150.882ZM166.728 32.7185L151.106 1.48827L154.894 -0.406836L170.516 30.8233L166.728 32.7185ZM151.133 59.9187L166.755 30.7704L170.489 32.7714L154.867 61.9197L151.133 59.9187ZM150.882 61V60.9192H155.118V61H150.882ZM152.957 58.8819H153V63.1181H152.957V58.8819ZM150.863 60.4233L151.09 59.9995L154.824 62.0005L154.596 62.4243L150.863 60.4233ZM154.848 61V61.4238H150.611V61H154.848ZM-3.01573e-05 58.8819H152.73V63.1181H-3.01573e-05V58.8819ZM2.11803 0V61H-2.11809V0H2.11803Z" fill="#008F11" mask="url(#path-1-inside-1_99_10)"/>
<mask id="path-3-inside-2_99_10" fill="white">
<path fill-rule="evenodd" clip-rule="evenodd" d="M191.973 31.8054L175.799 0L162.385 6.45493e-06V0.0193574L177.852 31.8054L162.385 61.4237H175.799L191.973 31.8054Z"/>
</mask>
<path fill-rule="evenodd" clip-rule="evenodd" d="M191.973 31.8054L175.799 0L162.385 6.45493e-06V0.0193574L177.852 31.8054L162.385 61.4237H175.799L191.973 31.8054Z" fill="#008F11" fill-opacity="0.9"/>
<path d="M175.799 0L175.799 -0.70602L176.232 -0.70602L176.428 -0.320024L175.799 0ZM191.973 31.8054L192.602 31.4854L192.771 31.8171L192.592 32.1438L191.973 31.8054ZM162.385 6.45493e-06H161.679V-0.706013L162.385 -0.706013L162.385 6.45493e-06ZM162.385 0.0193574L161.75 0.328284L161.679 0.18202V0.0193574H162.385ZM177.852 31.8054L178.487 31.4965L178.643 31.8167L178.478 32.1323L177.852 31.8054ZM162.385 61.4237V62.1297H161.219L161.759 61.0969L162.385 61.4237ZM175.799 61.4237L176.419 61.7621L176.218 62.1297H175.799V61.4237ZM176.428 -0.320024L192.602 31.4854L191.343 32.1254L175.17 0.320024L176.428 -0.320024ZM162.385 -0.706013L175.799 -0.70602L175.799 0.70602L162.385 0.706026L162.385 -0.706013ZM161.679 0.0193574V6.45493e-06H163.091V0.0193574H161.679ZM177.217 32.1144L161.75 0.328284L163.019 -0.289569L178.487 31.4965L177.217 32.1144ZM161.759 61.0969L177.226 31.4786L178.478 32.1323L163.01 61.7505L161.759 61.0969ZM175.799 62.1297H162.385V60.7177H175.799V62.1297ZM192.592 32.1438L176.419 61.7621L175.179 61.0854L191.353 31.4671L192.592 32.1438Z" fill="#008F11" mask="url(#path-3-inside-2_99_10)"/>
<mask id="path-5-inside-3_99_10" fill="white">
<path fill-rule="evenodd" clip-rule="evenodd" d="M212.447 31.8054L196.274 0L182.859 6.45493e-06L182.859 0.0193143L198.327 31.8054L182.859 61.4237H196.274L212.447 31.8054Z"/>
</mask>
<path fill-rule="evenodd" clip-rule="evenodd" d="M212.447 31.8054L196.274 0L182.859 6.45493e-06L182.859 0.0193143L198.327 31.8054L182.859 61.4237H196.274L212.447 31.8054Z" fill="#008F11" fill-opacity="0.71"/>
<path d="M196.274 0L196.274 -0.70602L196.707 -0.70602L196.903 -0.320024L196.274 0ZM212.447 31.8054L213.077 31.4854L213.245 31.8171L213.067 32.1438L212.447 31.8054ZM182.859 6.45493e-06L182.153 7.61998e-05L182.153 -0.706013L182.859 -0.706013L182.859 6.45493e-06ZM182.859 0.0193143L182.224 0.328241L182.153 0.18201L182.153 0.0193841L182.859 0.0193143ZM198.327 31.8054L198.962 31.4965L199.118 31.8167L198.953 32.1323L198.327 31.8054ZM182.859 61.4237V62.1297H181.694L182.233 61.0969L182.859 61.4237ZM196.274 61.4237L196.893 61.7621L196.692 62.1297H196.274V61.4237ZM196.903 -0.320024L213.077 31.4854L211.818 32.1254L195.644 0.320024L196.903 -0.320024ZM182.859 -0.706013L196.274 -0.70602L196.274 0.70602L182.859 0.706026L182.859 -0.706013ZM182.153 0.0193841L182.153 7.61998e-05L183.565 -6.329e-05L183.565 0.0192446L182.153 0.0193841ZM197.692 32.1144L182.224 0.328241L183.494 -0.289612L198.962 31.4965L197.692 32.1144ZM182.233 61.0969L197.701 31.4786L198.953 32.1323L183.485 61.7505L182.233 61.0969ZM196.274 62.1297H182.859V60.7177H196.274V62.1297ZM213.067 32.1438L196.893 61.7621L195.654 61.0854L211.828 31.4671L213.067 32.1438Z" fill="#008F11" mask="url(#path-5-inside-3_99_10)"/>
</g>
<defs>
<clipPath id="clip0_99_10">
<rect width="212" height="61" fill="white"/>
</clipPath>
</defs>
</svg>
