<svg width="370" height="101" viewBox="0 0 370 101" fill="none" xmlns="http://www.w3.org/2000/svg">
<g clip-path="url(#clip0_132_32)">
<mask id="path-1-inside-1_132_32" fill="white">
<path fill-rule="evenodd" clip-rule="evenodd" d="M169.749 0L199.185 48.9691L143.269 49.2334L143.352 49.0785H44.5194V49.0786L44.5193 49.0785H44.5139V49.0685L31.8212 25.3855L44.5139 0.0109334V1.59604e-05L169.749 0Z"/>
</mask>
<path fill-rule="evenodd" clip-rule="evenodd" d="M169.749 0L199.185 48.9691L143.269 49.2334L143.352 49.0785H44.5194V49.0786L44.5193 49.0785H44.5139V49.0685L31.8212 25.3855L44.5139 0.0109334V1.59604e-05L169.749 0Z" fill="#060040"/>
<path d="M199.185 48.9691L199.195 51.0872L202.919 51.0695L201.001 47.8779L199.185 48.9691ZM169.749 0L171.564 -1.09123L170.947 -2.11806L169.749 -2.11806L169.749 0ZM143.269 49.2334L141.403 48.2302L139.715 51.3683L143.279 51.3515L143.269 49.2334ZM143.352 49.0785L145.217 50.0818L146.896 46.9605H143.352V49.0785ZM44.5194 49.0785V46.9605H42.4013V49.0785H44.5194ZM44.5194 49.0786L42.657 50.0874L46.6374 49.0786H44.5194ZM44.5193 49.0785L46.3817 48.0697L45.7809 46.9605H44.5193V49.0785ZM44.5139 49.0785H42.3959V51.1966H44.5139V49.0785ZM44.5139 49.0685H46.632V48.5367L46.3808 48.0679L44.5139 49.0685ZM31.8212 25.3855L29.9269 24.4379L29.4361 25.4191L29.9543 26.386L31.8212 25.3855ZM44.5139 0.0109334L46.4082 0.958486L46.632 0.511133V0.0109334H44.5139ZM44.5139 1.59604e-05L44.5139 -2.11804L42.3959 -2.11804V1.59604e-05H44.5139ZM201.001 47.8779L171.564 -1.09123L167.933 1.09123L197.37 50.0603L201.001 47.8779ZM143.279 51.3515L199.195 51.0872L199.175 46.8511L143.259 47.1154L143.279 51.3515ZM141.486 48.0752L141.403 48.2302L145.134 50.2367L145.217 50.0818L141.486 48.0752ZM143.352 46.9605H44.5194V51.1966H143.352V46.9605ZM46.6374 49.0786V49.0785H42.4013V49.0786H46.6374ZM42.6569 50.0873L42.657 50.0874L46.3818 48.0698L46.3817 48.0697L42.6569 50.0873ZM44.5193 46.9605H44.5139V51.1966H44.5193V46.9605ZM46.632 49.0785V49.0685H42.3959V49.0785H46.632ZM29.9543 26.386L42.6471 50.069L46.3808 48.0679L33.688 24.3849L29.9543 26.386ZM42.6196 -0.93662L29.9269 24.4379L33.7155 26.333L46.4082 0.958486L42.6196 -0.93662ZM46.632 0.0109334V1.59604e-05H42.3959V0.0109334H46.632ZM44.5139 2.11808L169.749 2.11806L169.749 -2.11806L44.5139 -2.11804L44.5139 2.11808Z" fill="#008F11" mask="url(#path-1-inside-1_132_32)"/>
<mask id="path-3-inside-2_132_32" fill="white">
<path fill-rule="evenodd" clip-rule="evenodd" d="M16.3595 25.413L29.2825 0H29.2825H40.0008V0.0154906L27.6419 25.413L40.0008 49.0785L29.2825 49.0785L16.3595 25.413Z"/>
</mask>
<path fill-rule="evenodd" clip-rule="evenodd" d="M16.3595 25.413L29.2825 0H29.2825H40.0008V0.0154906L27.6419 25.413L40.0008 49.0785L29.2825 49.0785L16.3595 25.413Z" fill="#008F11" fill-opacity="0.9"/>
<path d="M29.2825 0V-0.70602H28.8495L28.6532 -0.320023L29.2825 0ZM16.3595 25.413L15.7302 25.093L15.5615 25.4248L15.7398 25.7514L16.3595 25.413ZM40.0008 0H40.7068V-0.70602H40.0008V0ZM40.0008 0.0154906L40.6356 0.324417L40.7068 0.178153V0.0154906H40.0008ZM27.6419 25.413L27.0071 25.1041L26.8513 25.4243L27.0161 25.7399L27.6419 25.413ZM40.0008 49.0785L40.0008 49.7845L41.166 49.7845L40.6266 48.7517L40.0008 49.0785ZM29.2825 49.0785L28.6629 49.4169L28.8636 49.7845L29.2825 49.7845L29.2825 49.0785ZM28.6532 -0.320023L15.7302 25.093L16.9888 25.7331L29.9118 0.320023L28.6532 -0.320023ZM29.2825 -0.70602H29.2825V0.70602H29.2825V-0.70602ZM40.0008 -0.70602H29.2825V0.70602H40.0008V-0.70602ZM40.7068 0.0154906V0H39.2948V0.0154906H40.7068ZM28.2768 25.722L40.6356 0.324417L39.366 -0.293436L27.0071 25.1041L28.2768 25.722ZM40.6266 48.7517L28.2677 25.0862L27.0161 25.7399L39.375 49.4053L40.6266 48.7517ZM29.2825 49.7845L40.0008 49.7845L40.0008 48.3725L29.2825 48.3725L29.2825 49.7845ZM15.7398 25.7514L28.6629 49.4169L29.9022 48.7401L16.9791 25.0747L15.7398 25.7514Z" fill="#008F11" mask="url(#path-3-inside-2_132_32)"/>
<mask id="path-5-inside-3_132_32" fill="white">
<path fill-rule="evenodd" clip-rule="evenodd" d="M0.359497 25.413L13.2825 0H13.2825H24.0008V0.0154906L11.6419 25.413L24.0008 49.0785L13.2825 49.0785L0.359497 25.413Z"/>
</mask>
<path fill-rule="evenodd" clip-rule="evenodd" d="M0.359497 25.413L13.2825 0H13.2825H24.0008V0.0154906L11.6419 25.413L24.0008 49.0785L13.2825 49.0785L0.359497 25.413Z" fill="#008F11" fill-opacity="0.64"/>
<path d="M13.2825 0V-0.70602H12.8495L12.6532 -0.320023L13.2825 0ZM0.359497 25.413L-0.269827 25.093L-0.438527 25.4248L-0.260154 25.7514L0.359497 25.413ZM24.0008 0H24.7068V-0.70602H24.0008V0ZM24.0008 0.0154906L24.6356 0.324417L24.7068 0.178153V0.0154906H24.0008ZM11.6419 25.413L11.0071 25.1041L10.8513 25.4243L11.0161 25.7399L11.6419 25.413ZM24.0008 49.0785L24.0008 49.7845L25.166 49.7845L24.6266 48.7517L24.0008 49.0785ZM13.2825 49.0785L12.6629 49.4169L12.8636 49.7845L13.2825 49.7845L13.2825 49.0785ZM12.6532 -0.320023L-0.269827 25.093L0.988821 25.7331L13.9118 0.320023L12.6532 -0.320023ZM13.2825 -0.70602H13.2825V0.70602H13.2825V-0.70602ZM24.0008 -0.70602H13.2825V0.70602H24.0008V-0.70602ZM24.7068 0.0154906V0H23.2948V0.0154906H24.7068ZM12.2768 25.722L24.6356 0.324417L23.366 -0.293436L11.0071 25.1041L12.2768 25.722ZM24.6266 48.7517L12.2677 25.0862L11.0161 25.7399L23.375 49.4053L24.6266 48.7517ZM13.2825 49.7845L24.0008 49.7845L24.0008 48.3725L13.2825 48.3725L13.2825 49.7845ZM-0.260154 25.7514L12.6629 49.4169L13.9022 48.7401L0.979148 25.0747L-0.260154 25.7514Z" fill="#008F11" mask="url(#path-5-inside-3_132_32)"/>
<line x1="182" y1="22.294" x2="314" y2="22.294" stroke="#008F11" stroke-width="1.41204"/>
<path d="M313.599 22.0093L370.111 100.919" stroke="#008F11" stroke-width="1.41204"/>
</g>
<defs>
<clipPath id="clip0_132_32">
<rect width="370" height="101" fill="white"/>
</clipPath>
</defs>
</svg>
